<mxfile host="app.diagrams.net" agent="Mozilla/5.0 (Windows NT 10.0; Win64; x64) AppleWebKit/537.36 (KHTML, like Gecko) Chrome/136.0.0.0 Safari/537.36" version="27.0.6">
  <diagram id="4sxThrcS1GXPEqfy17P8" name="Page-1">
    <mxGraphModel dx="1251" dy="1760" grid="1" gridSize="10" guides="1" tooltips="1" connect="1" arrows="1" fold="1" page="1" pageScale="1" pageWidth="850" pageHeight="1100" math="0" shadow="0">
      <root>
        <mxCell id="0" />
        <mxCell id="1" parent="0" />
        <mxCell id="5cEK24qAZK9ujdfZ6Y9_-2" value="" style="rounded=0;whiteSpace=wrap;html=1;" vertex="1" parent="1">
          <mxGeometry x="80" y="80" width="500" height="230" as="geometry" />
        </mxCell>
        <mxCell id="5cEK24qAZK9ujdfZ6Y9_-3" value="&lt;b&gt;Project-1&lt;/b&gt;" style="rounded=0;whiteSpace=wrap;html=1;fillColor=#dae8fc;gradientColor=#7ea6e0;strokeColor=#6c8ebf;" vertex="1" parent="1">
          <mxGeometry x="120" y="220" width="120" height="60" as="geometry" />
        </mxCell>
        <mxCell id="5cEK24qAZK9ujdfZ6Y9_-4" value="&lt;b&gt;Jenkins Shared Library&lt;/b&gt;" style="ellipse;whiteSpace=wrap;html=1;" vertex="1" parent="1">
          <mxGeometry x="340" y="90" width="120" height="80" as="geometry" />
        </mxCell>
        <mxCell id="5cEK24qAZK9ujdfZ6Y9_-5" style="edgeStyle=orthogonalEdgeStyle;rounded=0;orthogonalLoop=1;jettySize=auto;html=1;entryX=0.045;entryY=0.384;entryDx=0;entryDy=0;entryPerimeter=0;" edge="1" parent="1" source="5cEK24qAZK9ujdfZ6Y9_-3" target="5cEK24qAZK9ujdfZ6Y9_-4">
          <mxGeometry relative="1" as="geometry">
            <Array as="points">
              <mxPoint x="180" y="121" />
            </Array>
          </mxGeometry>
        </mxCell>
        <mxCell id="5cEK24qAZK9ujdfZ6Y9_-7" style="edgeStyle=orthogonalEdgeStyle;rounded=0;orthogonalLoop=1;jettySize=auto;html=1;entryX=0.5;entryY=0;entryDx=0;entryDy=0;" edge="1" parent="1" source="5cEK24qAZK9ujdfZ6Y9_-6" target="5cEK24qAZK9ujdfZ6Y9_-4">
          <mxGeometry relative="1" as="geometry" />
        </mxCell>
        <mxCell id="5cEK24qAZK9ujdfZ6Y9_-6" value="" style="verticalLabelPosition=bottom;html=1;verticalAlign=top;align=center;strokeColor=none;fillColor=#00BEF2;shape=mxgraph.azure.github_code;pointerEvents=1;" vertex="1" parent="1">
          <mxGeometry x="365" y="-90" width="70" height="60" as="geometry" />
        </mxCell>
      </root>
    </mxGraphModel>
  </diagram>
</mxfile>
